<svg xmlns="http://www.w3.org/2000/svg" viewBox="0 0 500 500"><defs><style>.cls-1{fill:#fff;}</style></defs><g id="Camada_2" data-name="Camada 2"><g id="Camada_1-2" data-name="Camada 1"><path class="cls-1" d="M0,500V0H500V500ZM14.09,249.11C12,377,117.37,484.05,248.44,484.64c138.44.62,235.69-111.2,238-228.59A235.4,235.4,0,0,0,248.11,15.73C114.07,16.82,13,126,14.09,249.11Z"/><path d="M14.09,249.11C13,126,114.07,16.82,248.11,15.73A235.4,235.4,0,0,1,486.39,256.05c-2.26,117.39-99.51,229.21-237.95,228.59C117.37,484.05,12,377,14.09,249.11Zm63.65-28.05c1.29-1.07,2-1.72,2.76-2.28,7.11-5.21,14.17-10.51,21.39-15.57,4.28-3,5-6.31,1.93-10.48-2.24-3.1-4.26-6.38-6.74-9.26-4.62-5.37-9.51-10.51-14.88-16.4,12-1.08,23-2.35,34.07-3,9.12-.54,10.23-1.25,7.83-9.9-2.33-8.37-5.42-16.53-8.31-25.2a40.8,40.8,0,0,1,6.28,1.21c7,2.51,14.13,4.9,20.91,8,4.41,2,6.71.78,7.73-3.39,2.17-8.86,4.09-17.78,6.06-26.69.43-2,.66-4,1.24-7.64,2.33,2.67,3.65,4.12,4.9,5.63,5.74,6.92,11.5,13.82,17.19,20.78,4.46,5.46,4.42,5.5,9.19.27a100.56,100.56,0,0,1,31.56-23c0,3.41-.16,6.22,0,9,.66,9.28,1.06,18.6,2.3,27.81.86,6.4,2.29,6.87,8.47,4.76,8.6-2.94,17.16-6,26.86-9.36l-19.93,35.72,34,5.49c-1.56,1.78-2.44,2.91-3.45,3.9-6.1,5.91-12.27,11.74-18.34,17.68-4.36,4.27-4.13,4.92,1.56,7.29,7.45,3.1,14.84,6.33,22.25,9.5l.27,1.71-38.58,17.76,23.33,15.91c-6,2.61-11.4,5.08-16.88,7.28-6.1,2.46-6.33,2.83-4.06,9.12,1.11,3.05,2.1,6.13,3.38,9.9-3.64.4-6.58.68-9.5,1-5.37.67-6.55,3.14-3.59,7.79,1.51,2.36,3.29,4.54,5.28,7.25a57.1,57.1,0,0,1-5.38,2.11,26.77,26.77,0,0,0-14.73,9.53c-2.42,3.07-6.51,5.07-10.18,6.84-6,2.91-7.38,7.4-3.29,12.65,12.4,15.89,20.64,34,28.22,52.51,2.09,5.09.8,8.92-3.39,12.29-3.1,2.5-5.83,5.46-8.84,8.08-2.08,1.81-2.23,3.48-.32,5.46,6.46,6.66,12.88,13.35,20.39,21.14-2.22-11.68-13.62-15.12-18-24,3.37-3.08,6.55-6.25,10-9.08,4.62-3.8,5.85-8.21,3.45-13.71-3.38-7.76-6.26-15.78-10.13-23.29-5-9.66-10.74-18.94-16.19-28.43,9.09,2.63,18.51,5.2,27.78,8.19a7.26,7.26,0,0,1,4.06,4.34c8.88,32.69,17.55,65.44,26.32,98.16a13.81,13.81,0,0,0,1.57,2.89l1.62-.26c.65-5,1.48-10,1.92-15.07a88,88,0,0,1,13.37-39.26c.69-1.13,3.23-2,4.64-1.65,9.4,2,18.64,4.83,28.09,6.51,5.24.93,10.77.17,16.17.17l.46-1.77c-32.32-.92-60-9.82-73.81-42.82l-1.24,1.11c.55,2.72,1.11,5.44,1.76,8.62-5.56-.43-9.56-2.69-12.06-7.17-2.36-4.21-2.93-9.23.4-12.67,5.08-5.27,3.49-9.63,0-14.46-5.11-7.09-5.5-14.59-2.37-22.67,1.55-4,3.23-8.36,3.1-12.51-.3-9.78,4.26-17.17,9.91-24.32,8.29-10.49,16.87-20.66,29.21-26.73,9.71-4.77,20.11-6.9,30.78-7.79,26.45-2.21,48.63,6.31,64.62,27.82,5.77,7.76,11.85,16.64,13.53,25.79,2.71,14.8,5.78,30.2.73,45.45-.62,1.85,0,4.65,1.05,6.42,5.08,8.59,2.77,16.82-6.29,21.33-1.78.88-3.78,1.63-5.14,3-7.4,7.36-14.65,14.88-21.92,22.37a7.74,7.74,0,0,0-.95,1.72l1.38-.43c4.76,11.77,9.53,23.53,14.8,36.58a29.25,29.25,0,0,0,0-4.5c-1-4.94.29-8.66,4.19-12.28a256.64,256.64,0,0,0,21.6-22.16c39.76-47.09,53.71-102,45.38-162.15-6.65-48-29.53-88.4-66-120.46C338.92,55,285.62,38.4,225.21,44.84a193.3,193.3,0,0,0-91.14,34c-38.69,26.9-65.45,62.66-79.56,108a202.38,202.38,0,0,0-6,95.66C55.06,320.74,72,354.34,97.8,383.42c3.68,4.14,9.1,7.47,8.21,14.68a10.6,10.6,0,0,0,2.35-4.26c5.4-18.16,10.83-36.32,16.08-54.52a7.19,7.19,0,0,1,5.43-5.6q16.42-5.13,32.58-11.09c1.65-.61,3.11-3,3.72-4.89,1.24-3.8-2.07-4.84-4.63-5.84-9.53-3.73-16.89-9.63-21.31-19.16a136,136,0,0,1-12.3-44.42,19.82,19.82,0,0,0-1.44-4.26l-1.79.64c2,20.94,6.13,41.25,18.64,59.33-2,.91-3.28,1.59-4.65,2.14s-3,1.05-4.49,1.58a7.7,7.7,0,0,1-.79-1.73c-.41-2.8-.81-5.6-1.11-8.41-.59-5.54-1.59-6.1-7-5.38-4.63.62-9.35.57-14.52.85,1.38-5.69,2.42-10.38,3.66-15,1.9-7.15,1.41-8.27-5.44-10.61-5.75-2-11.52-3.84-18.18-6.06,1.84-2.17,2.89-3.59,4.11-4.84,4.3-4.41,8.49-9,13.06-13.08,2.55-2.31,2.22-4,.29-6.23-5.56-6.47-12.11-11.36-20.51-13.49C84.65,222.94,81.5,222.07,77.74,221.06Zm81.5,113.16-1.37-.7a24.94,24.94,0,0,0-2.4,3.74c-4.34,10.39-9,20.66-12.78,31.26-6.26,17.61-7.59,14,6.11,26.93,1.57,1.47,3.51,2.87,4.33,4.73.73,1.65.15,3.88.15,5.93,5.6-3.45,5.9-4.82,1.72-8.8-3.73-3.55-7.82-6.75-11.32-10.51-1.27-1.36-2.26-4.24-1.71-5.86,4.31-12.7,9-25.27,13.65-37.86C156.72,340.09,158,337.18,159.24,334.22Z"/><path class="cls-1" d="M77.74,221.06c3.76,1,6.91,1.88,10.08,2.69,8.4,2.13,15,7,20.51,13.49,1.93,2.25,2.26,3.92-.29,6.23-4.57,4.12-8.76,8.67-13.06,13.08-1.22,1.25-2.27,2.67-4.11,4.84,6.66,2.22,12.43,4.1,18.18,6.06,6.85,2.34,7.34,3.46,5.44,10.61-1.24,4.64-2.28,9.33-3.66,15,5.17-.28,9.89-.23,14.52-.85,5.36-.72,6.36-.16,7,5.38.3,2.81.7,5.61,1.11,8.41a7.7,7.7,0,0,0,.79,1.73c1.5-.53,3-1,4.49-1.58s2.69-1.23,4.65-2.14C130.83,286,126.68,265.64,124.7,244.7l1.79-.64a19.82,19.82,0,0,1,1.44,4.26,136,136,0,0,0,12.3,44.42c4.42,9.53,11.78,15.43,21.31,19.16,2.56,1,5.87,2,4.63,5.84-.61,1.88-2.07,4.28-3.72,4.89q-16.14,6-32.58,11.09a7.19,7.19,0,0,0-5.43,5.6c-5.25,18.2-10.68,36.36-16.08,54.52A10.6,10.6,0,0,1,106,398.1c.89-7.21-4.53-10.54-8.21-14.68C72,354.34,55.06,320.74,48.5,282.49a202.38,202.38,0,0,1,6-95.66c14.11-45.31,40.87-81.07,79.56-108a193.3,193.3,0,0,1,91.14-34C285.62,38.4,338.92,55,384.5,95c36.46,32.06,59.34,72.44,66,120.46,8.33,60.17-5.62,115.06-45.38,162.15a256.64,256.64,0,0,1-21.6,22.16c-3.9,3.62-5.19,7.34-4.19,12.28a29.25,29.25,0,0,1,0,4.5c-5.27-13-10-24.81-14.8-36.58l-1.38.43a7.74,7.74,0,0,1,.95-1.72c7.27-7.49,14.52-15,21.92-22.37,1.36-1.35,3.36-2.1,5.14-3,9.06-4.51,11.37-12.74,6.29-21.33-1-1.77-1.67-4.57-1.05-6.42,5.05-15.25,2-30.65-.73-45.45-1.68-9.15-7.76-18-13.53-25.79-16-21.51-38.17-30-64.62-27.82-10.67.89-21.07,3-30.78,7.79-12.34,6.07-20.92,16.24-29.21,26.73-5.65,7.15-10.21,14.54-9.91,24.32.13,4.15-1.55,8.51-3.1,12.51-3.13,8.08-2.74,15.58,2.37,22.67,3.48,4.83,5.07,9.19,0,14.46-3.33,3.44-2.76,8.46-.4,12.67,2.5,4.48,6.5,6.74,12.06,7.17-.65-3.18-1.21-5.9-1.76-8.62l1.24-1.11c13.77,33,41.49,41.9,73.81,42.82l-.46,1.77c-5.4,0-10.93.76-16.17-.17-9.45-1.68-18.69-4.48-28.09-6.51-1.41-.31-3.95.52-4.64,1.65A88,88,0,0,0,269.12,424c-.44,5-1.27,10-1.92,15.07l-1.62.26a13.81,13.81,0,0,1-1.57-2.89c-8.77-32.72-17.44-65.47-26.32-98.16a7.26,7.26,0,0,0-4.06-4.34c-9.27-3-18.69-5.56-27.78-8.19,5.45,9.49,11.2,18.77,16.19,28.43,3.87,7.51,6.75,15.53,10.13,23.29,2.4,5.5,1.17,9.91-3.45,13.71-3.46,2.83-6.64,6-10,9.08,4.43,8.93,15.83,12.37,18,24-7.51-7.79-13.93-14.48-20.39-21.14-1.91-2-1.76-3.65.32-5.46,3-2.62,5.74-5.58,8.84-8.08,4.19-3.37,5.48-7.2,3.39-12.29-7.58-18.49-15.82-36.62-28.22-52.51-4.09-5.25-2.74-9.74,3.29-12.65,3.67-1.77,7.76-3.77,10.18-6.84a26.77,26.77,0,0,1,14.73-9.53,57.1,57.1,0,0,0,5.38-2.11c-2-2.71-3.77-4.89-5.28-7.25-3-4.65-1.78-7.12,3.59-7.79,2.92-.36,5.86-.64,9.5-1-1.28-3.77-2.27-6.85-3.38-9.9-2.27-6.29-2-6.66,4.06-9.12,5.48-2.2,10.86-4.67,16.88-7.28l-23.33-15.91,38.58-17.76-.27-1.71c-7.41-3.17-14.8-6.4-22.25-9.5-5.69-2.37-5.92-3-1.56-7.29,6.07-5.94,12.24-11.77,18.34-17.68,1-1,1.89-2.12,3.45-3.9l-34-5.49,19.93-35.72c-9.7,3.39-18.26,6.42-26.86,9.36-6.18,2.11-7.61,1.64-8.47-4.76-1.24-9.21-1.64-18.53-2.3-27.81-.19-2.78,0-5.59,0-9a100.56,100.56,0,0,0-31.56,23c-4.77,5.23-4.73,5.19-9.19-.27-5.69-7-11.45-13.86-17.19-20.78-1.25-1.51-2.57-3-4.9-5.63-.58,3.64-.81,5.66-1.24,7.64-2,8.91-3.89,17.83-6.06,26.69-1,4.17-3.32,5.39-7.73,3.39-6.78-3.08-13.88-5.47-20.91-8a40.8,40.8,0,0,0-6.28-1.21c2.89,8.67,6,16.83,8.31,25.2,2.4,8.65,1.29,9.36-7.83,9.9-11.07.64-22.11,1.91-34.07,3,5.37,5.89,10.26,11,14.88,16.4,2.48,2.88,4.5,6.16,6.74,9.26,3,4.17,2.35,7.49-1.93,10.48-7.22,5.06-14.28,10.36-21.39,15.57C79.73,219.34,79,220,77.74,221.06Z"/><path class="cls-1" d="M159.24,334.22c-1.21,3-2.52,5.87-3.62,8.86-4.64,12.59-9.34,25.16-13.65,37.86-.55,1.62.44,4.5,1.71,5.86,3.5,3.76,7.59,7,11.32,10.51,4.18,4,3.88,5.35-1.72,8.8,0-2.05.58-4.28-.15-5.93-.82-1.86-2.76-3.26-4.33-4.73-13.7-12.9-12.37-9.32-6.11-26.93,3.76-10.6,8.44-20.87,12.78-31.26a24.94,24.94,0,0,1,2.4-3.74Z"/></g></g></svg>